<svg xmlns="http://www.w3.org/2000/svg" width="85" height="84" fill="none"><g filter="url(#a)"><path fill="#fff" d="M8.243 31.572C14.63 3.645 21.986-.972 49.913 5.416c27.927 6.389 32.544 13.743 26.156 41.67-6.388 27.928-13.743 32.545-41.67 26.157C6.47 66.854 1.855 59.5 8.243 31.573"/></g><mask id="b" width="74" height="74" x="5" y="2" maskUnits="userSpaceOnUse" style="mask-type:alpha"><path fill="#fff" d="M8.243 31.572C14.63 3.645 21.986-.972 49.913 5.416c27.927 6.389 32.544 13.743 26.156 41.67-6.388 27.928-13.743 32.545-41.67 26.157C6.47 66.854 1.855 59.5 8.243 31.573"/></mask><g mask="url(#b)"><path fill="url(#c)" d="M33.33 52.317c-4.098 2.32-11.546 5.991-15.636 7.69-3.001 1.247-11.69 4.48-12.317 4.514-.6.032.572-2.17.543-2.718-.045-.852 3.391-2.046 6.331-3.153 1.537-.579 3.76-1.457 4.939-1.951 2.793-1.17 10.282-4.857 13.18-6.49l.228-.129z"/><path fill="url(#d)" d="M51.334 56.402c1.235.56 1.38.809 1.417 1.493.042.79-.62 1.38-1.61 1.432q-.24.012-.586-.05a4.762 4.762 0 0 1 .78-2.875"/><path fill="url(#e)" d="M39.517 16.368c1.98-.426 5.898-.543 7.744-.23 8.285 1.408 11.738 8.263 8.208 16.3-2.107 4.795-7.113 10.08-13.904 14.681-.475.322-.976.665-1.411.962a99 99 0 0 1-2.012-1.639q-.33-.282-.65-.56a181 181 0 0 0 2.556-1.77c3.5-2.468 7.339-5.933 9.165-8.27 3.868-4.953 4.931-10.166 2.742-13.453-1.184-1.78-2.806-2.685-5.623-3.138-5.153-.828-10.851.963-14.701 4.619-6.093 5.785-5.073 14.433 2.568 21.764l.069.066c.687.721 1.62 1.673 2.328 2.265.86.72 2.148 1.58 2.91 2.075l.326.233c2.816 2.003 5.979 3.76 9.481 5.265a6.9 6.9 0 0 0-.925 3.072c-3.065-1.183-7.69-3.645-11.022-6l-.315-.224c-.69-.545-2.128-1.687-2.921-2.36-1.797-1.527-3.425-3.088-3.458-3.12l-.021.043c-6.58-6.878-8.403-14.407-5.027-20.952 1.106-2.143 2.711-3.977 4.935-5.638 2.626-1.962 5.517-3.25 8.958-3.991"/><path fill="#4343FF" d="M60.106 59.236a4.781 4.781 0 1 1-9.553-.415 4.781 4.781 0 0 1 9.553.415"/></g><defs><linearGradient id="c" x1="30.381" x2="57.56" y1="19.947" y2="62.889" gradientUnits="userSpaceOnUse"><stop/><stop offset="1" stop-color="#2727FD"/></linearGradient><linearGradient id="d" x1="30.381" x2="57.56" y1="19.947" y2="62.889" gradientUnits="userSpaceOnUse"><stop/><stop offset="1" stop-color="#2727FD"/></linearGradient><linearGradient id="e" x1="30.381" x2="57.56" y1="19.947" y2="62.889" gradientUnits="userSpaceOnUse"><stop/><stop offset="1" stop-color="#2727FD"/></linearGradient><filter id="a" width="83.77" height="83.77" x=".271" y=".047" color-interpolation-filters="sRGB" filterUnits="userSpaceOnUse"><feFlood flood-opacity="0" result="BackgroundImageFix"/><feColorMatrix in="SourceAlpha" result="hardAlpha" values="0 0 0 0 0 0 0 0 0 0 0 0 0 0 0 0 0 0 127 0"/><feOffset dy="2.603"/><feGaussianBlur stdDeviation="2.718"/><feColorMatrix values="0 0 0 0 0.262745 0 0 0 0 0.262745 0 0 0 0 1 0 0 0 0.08 0"/><feBlend in2="BackgroundImageFix" result="effect1_dropShadow_900_396"/><feBlend in="SourceGraphic" in2="effect1_dropShadow_900_396" result="shape"/></filter></defs></svg>