<svg xmlns="http://www.w3.org/2000/svg" width="228" height="228" fill="none"><g filter="url(#a)" opacity=".15"><path fill="#4343FF" d="M140.309 61.687c8.768 10.407 6.04 16.518-15.451 34.621s-27.976 19.752-36.743 9.344-6.04-16.518 15.451-34.621 27.976-19.752 36.743-9.344"/></g><g filter="url(#b)"><path fill="#fff" d="M83.135 71.194c5.876-25.688 12.642-29.935 38.33-24.059 25.689 5.876 29.935 12.642 24.059 38.33-5.876 25.689-12.641 29.935-38.33 24.059-25.688-5.876-29.935-12.641-24.059-38.33"/></g><mask id="c" width="68" height="68" x="80" y="44" maskUnits="userSpaceOnUse" style="mask-type:alpha"><path fill="#fff" d="M83.135 71.194c5.876-25.688 12.642-29.935 38.33-24.059 25.689 5.876 29.935 12.642 24.059 38.33-5.876 25.689-12.641 29.935-38.33 24.059-25.688-5.876-29.935-12.641-24.059-38.33"/></mask><g mask="url(#c)"><path fill="url(#d)" fill-rule="evenodd" d="M111.903 57.207c-3.165.681-5.824 1.866-8.24 3.67-2.045 1.529-3.522 3.216-4.539 5.187-3.239 6.28-1.277 13.544 5.425 20.086l1.032 1.008-2.092 1.178c-2.665 1.501-9.555 4.893-12.123 5.97-1.085.454-3.13 1.261-4.543 1.794-2.704 1.018-3.592 1.257-3.55 2.04.026.505 1.22 1.632 1.773 1.603.575-.03 4.023-1.248 6.784-2.395 3.992-1.658 11.46-5.357 15.035-7.448l1.177-.689 1.883 1.332c4.295 3.038 10.926 6.273 12.669 6.18.912-.049 1.521-.59 1.482-1.318-.042-.8-.245-.954-2.46-1.87-3.503-1.45-6.647-3.165-9.423-5.142l-1.294-.92.617-.43a303 303 0 0 1 2.271-1.55c6.247-4.232 10.851-9.093 12.789-13.504 3.247-7.393.072-13.698-7.549-14.992-1.698-.288-5.302-.182-7.124.21m6.268 2.653c2.592.416 4.084 1.249 5.174 2.885 2.013 3.023 1.036 7.819-2.523 12.374-1.679 2.15-5.211 5.337-8.43 7.607-1.571 1.108-3.122 2.165-3.449 2.35l-.592.335-1.339-1.284c-7.029-6.743-7.968-14.697-2.363-20.02 3.541-3.362 8.783-5.009 13.522-4.247" clip-rule="evenodd"/><path fill="#fff" d="m102.754 87.442 1.014-2.145s1.509 1.451 3.18 2.87c.983.836 3.045 2.456 3.045 2.456l-1.824 1.255zm3.469-4.165L107.459 82s1.51 1.452 3.18 2.87c.983.836 3.045 2.456 3.045 2.456l-1.21 1.228s-2.069-1.287-3.257-2.282c-1.162-.973-2.994-2.995-2.994-2.995"/><circle cx="126.448" cy="96.449" r="5.398" fill="#4343FF" stroke="#fff" stroke-width="2" transform="rotate(2.487 126.448 96.449)"/></g><defs><filter id="a" width="125.537" height="120.808" x="51.444" y="23.266" color-interpolation-filters="sRGB" filterUnits="userSpaceOnUse"><feFlood flood-opacity="0" result="BackgroundImageFix"/><feBlend in="SourceGraphic" in2="BackgroundImageFix" result="shape"/><feGaussianBlur result="effect1_foregroundBlur_355_662" stdDeviation="16"/></filter><filter id="b" width="227.054" height="227.054" x=".803" y=".803" color-interpolation-filters="sRGB" filterUnits="userSpaceOnUse"><feFlood flood-opacity="0" result="BackgroundImageFix"/><feColorMatrix in="SourceAlpha" result="hardAlpha" values="0 0 0 0 0 0 0 0 0 0 0 0 0 0 0 0 0 0 127 0"/><feOffset dy="2.394"/><feGaussianBlur stdDeviation="2.66"/><feColorMatrix values="0 0 0 0 0 0 0 0 0 0 0 0 0 0 0 0 0 0 0.0282725 0"/><feBlend in2="BackgroundImageFix" result="effect1_dropShadow_355_662"/><feColorMatrix in="SourceAlpha" result="hardAlpha" values="0 0 0 0 0 0 0 0 0 0 0 0 0 0 0 0 0 0 127 0"/><feOffset dy="8.041"/><feGaussianBlur stdDeviation="8.935"/><feColorMatrix values="0 0 0 0 0 0 0 0 0 0 0 0 0 0 0 0 0 0 0.0417275 0"/><feBlend in2="effect1_dropShadow_355_662" result="effect2_dropShadow_355_662"/><feColorMatrix in="SourceAlpha" result="hardAlpha" values="0 0 0 0 0 0 0 0 0 0 0 0 0 0 0 0 0 0 127 0"/><feOffset dy="36"/><feGaussianBlur stdDeviation="40"/><feColorMatrix values="0 0 0 0 0 0 0 0 0 0 0 0 0 0 0 0 0 0 0.07 0"/><feBlend in2="effect2_dropShadow_355_662" result="effect3_dropShadow_355_662"/><feBlend in="SourceGraphic" in2="effect3_dropShadow_355_662" result="shape"/></filter><linearGradient id="d" x1="103.5" x2="128.5" y1="60.5" y2="100" gradientUnits="userSpaceOnUse"><stop/><stop offset="1" stop-color="#2727FD"/></linearGradient></defs></svg>